<svg xmlns="http://www.w3.org/2000/svg" fill="none" viewBox="0 0 218 25"><g fill="#2F695E" clip-path="url(#a)"><path d="M6.927 24.256.293.496h4.3L9.75 18.819 15.157.496h4.053l5.528 18.441L29.775.496h4.422l-6.634 23.76h-5.036L17.245 6.524l-5.283 17.732H6.927ZM37.145.496h4.176v23.76h-4.176V.496ZM50.166 20.591h10.072v3.665H46.113V.496h4.053V20.59ZM72.896.497c3.44 0 6.265 1.184 8.476 3.428 2.215 2.368 3.44 5.2 3.44 8.512 0 3.31-1.231 6.146-3.44 8.392-2.215 2.369-5.037 3.428-8.476 3.428h-9.71V.497h9.71Zm0 20.095c2.338 0 4.3-.71 5.65-2.25 1.6-1.539 2.339-3.546 2.339-5.91 0-2.364-.739-4.256-2.338-5.793-1.354-1.54-3.323-2.368-5.651-2.368h-5.66v16.32l5.66.001ZM106.549 17.518a6.46 6.46 0 0 1-.532 2.63 6.681 6.681 0 0 1-1.56 2.217c-1.476 1.303-3.199 1.895-5.281 1.895h-10.56V.497h9.703c2.092 0 3.809.71 5.16 1.894 1.477 1.303 2.092 2.842 2.092 4.729 0 2.131-.861 3.67-2.461 4.847 2.211 1.06 3.439 3.07 3.439 5.551ZM92.669 4.16v6.266h5.773c1.723 0 3.071-1.303 3.071-3.079 0-1.776-1.354-3.191-3.07-3.191l-5.774.004Zm6.51 16.55c1.846 0 3.317-1.54 3.317-3.429 0-1.888-1.477-3.31-3.316-3.31h-6.511v6.739h6.51ZM114.535 20.591h10.932v3.665h-14.986V.496h14.741v3.783h-10.687v6.147h9.827v3.664h-9.827v6.501ZM143.161 24.256l-5.168-8.629h-4.91v8.63h-3.931V.496h9.825c2.215 0 4.177.71 5.651 2.25 1.474 1.539 2.338 3.31 2.338 5.437 0 2.96-1.969 5.792-4.914 6.857l5.65 9.22-4.541-.005ZM133.083 4.16V12.2h5.894c2.215 0 3.807-1.777 3.807-4.02 0-2.242-1.715-4.019-3.807-4.019h-5.894ZM164.776 24.256l-5.16-8.629h-4.79v8.63h-4.054V.496h9.95c2.215 0 4.054.71 5.528 2.25 1.6 1.42 2.338 3.31 2.338 5.437 0 2.96-1.969 5.792-4.913 6.857l5.65 9.22-4.549-.005Zm-9.95-20.096V12.2h5.773c2.215 0 3.931-1.777 3.931-4.02 0-2.242-1.723-4.019-3.931-4.019h-5.773ZM172.269.496h4.055v23.76h-4.055V.496ZM185.167 20.591H196.1v3.665h-14.986V.496h14.863v3.783h-10.81v6.147h9.951v3.664h-9.951v6.501ZM198.925 18.937l3.563-2.014c.984 2.724 3.076 4.02 6.141 4.02 3.066 0 4.546-1.303 4.546-3.192 0-.947-.369-1.658-1.231-2.131-.738-.592-2.215-1.066-4.299-1.777-2.461-.592-3.569-1.065-5.283-2.131-1.6-1.066-2.338-2.605-2.338-4.847 0-2.013.738-3.665 2.338-4.965 1.477-1.185 3.446-1.895 5.651-1.895 3.938 0 7.002 2.013 8.599 5.32l-3.446 1.894c-.984-2.25-2.83-3.31-5.159-3.31-2.461 0-3.931 1.066-3.931 2.96 0 1.777 1.231 2.606 5.037 3.665.861.355 1.6.592 1.969.71a9.768 9.768 0 0 1 1.846.71c.861.237 1.476.593 1.846.948 1.353.947 2.584 2.487 2.584 4.847 0 2.131-.862 3.9-2.461 5.2-1.6 1.185-3.692 1.777-6.388 1.777-4.793.003-8.233-2.125-9.584-5.79Z"/></g><defs><clipPath id="a"><path fill="#fff" d="M.293.022h217.059v24.706H.292z"/></clipPath></defs></svg>