<svg xmlns="http://www.w3.org/2000/svg" fill="none" viewBox="0 0 186 41"><g clip-path="url(#a)"><path fill="#2F695E" fill-rule="evenodd" d="M113.377 9.657c10.344 0 18.575 4.79 18.575 10.717 0 5.928-8.231 10.717-18.575 10.717-10.42 0-18.801-4.788-18.801-10.717s8.381-10.717 18.801-10.717ZM20.353.081C9.177.08.117 9.2.117 20.374c0 11.25 9.06 20.295 20.236 20.295 11.25 0 20.31-9.045 20.31-20.295 0-11.173-9.06-20.293-20.31-20.293ZM157.625 35.12a4.648 4.648 0 0 1-1.328 3.318 4.609 4.609 0 0 1-3.279 1.38 4.598 4.598 0 0 1-3.278-1.38 4.635 4.635 0 0 1-1.328-3.318c0-10.641 0-21.583-.151-32.227 0-2.812 1.435-2.28 3.021-.913l24.766 19.915-.151-16.266a4.634 4.634 0 0 1 1.34-3.287 4.578 4.578 0 0 1 3.266-1.35c2.491-.078 4.757 1.977 4.832 4.561l.078 32.075c0 3.193-1.812 2.28-3.095 1.216l-24.693-19.838V35.12ZM113.377.08c15.554 0 28.164 9.121 28.164 20.294 0 11.25-12.61 20.295-28.164 20.295-15.63 0-28.466-9.045-28.466-20.295C84.91 9.201 97.748.081 113.377.081ZM51.159 10.19c-2.491 0-4.605-2.048-4.605-4.637 0-2.588 2.112-4.637 4.605-4.637h28.995c1.812 0 2.945.912 1.284 3.04L61.504 30.486h16.08c2.567 0 4.606 2.127 4.606 4.636a4.632 4.632 0 0 1-1.341 3.287 4.575 4.575 0 0 1-3.266 1.349l-31.712.152c-2.035 0-2.035-1.445-.982-2.813l20.164-26.754-13.894-.152Zm-30.806-.533c-5.89 0-10.72 4.79-10.72 10.717 0 5.928 4.832 10.792 10.72 10.792 5.965 0 10.798-4.865 10.798-10.792 0-5.926-4.833-10.717-10.798-10.717Z" clip-rule="evenodd"/></g><defs><clipPath id="a"><path fill="#fff" d="M.117.08H185.41V40.67H.117z"/></clipPath></defs></svg>