<svg xmlns="http://www.w3.org/2000/svg" fill="none" viewBox="0 0 106 106"><g filter="url(#a)"><circle cx="52.58" cy="52.58" r="52.58" fill="#fff" fill-opacity=".31"/><circle cx="52.58" cy="52.58" r="52.142" stroke="url(#b)" stroke-width=".876"/></g><path fill="#fff" d="M72.296 54.58a2.802 2.802 0 0 1-1.353 2.405L45.296 72.674a2.85 2.85 0 0 1-3.94-.98 2.823 2.823 0 0 1-.39-1.427V38.892a2.823 2.823 0 0 1 1.446-2.46 2.848 2.848 0 0 1 2.884.054l25.647 15.689a2.802 2.802 0 0 1 1.353 2.405Z"/><defs><linearGradient id="b" x1="2.009" x2="107.61" y1="10.516" y2="16.594" gradientUnits="userSpaceOnUse"><stop stop-color="#fff"/><stop offset="1" stop-color="#fff" stop-opacity=".43"/></linearGradient><filter id="a" width="122.687" height="122.687" x="-8.763" y="-8.763" color-interpolation-filters="sRGB" filterUnits="userSpaceOnUse"><feFlood flood-opacity="0" result="BackgroundImageFix"/><feGaussianBlur in="BackgroundImageFix" stdDeviation="4.382"/><feComposite in2="SourceAlpha" operator="in" result="effect1_backgroundBlur_518_19811"/><feBlend in="SourceGraphic" in2="effect1_backgroundBlur_518_19811" result="shape"/></filter></defs></svg>