<svg xmlns="http://www.w3.org/2000/svg" fill="none" viewBox="0 0 52 51"><path fill="#fff" fill-rule="evenodd" d="M38.866 27.151c-.854 0-1.708.854-1.708 1.708s.854 1.693 1.708 1.693c5.124 0 9.378 4.24 9.378 9.76v.426c-.427.854 0 1.693.854 2.12h.427c.854 0 1.281-.427 1.281-.839.427-.427.427-1.28.427-1.708 0-7.212-5.123-13.16-12.367-13.16ZM24.792 4.66c1.28-.427 2.561-.84 3.842-.84 4.682 0 8.524 5.094 8.524 11.026 0 1.28 0 2.12-.427 3.4 0 .854.427 1.693 1.281 1.693h.427c.854 0 1.281-.427 1.281-1.266.427-1.28.427-2.546.427-3.827C40.147 7.206 35.024.42 28.634.42c-1.707 0-3.842.854-5.123 1.693-.854.427-1.281 1.28-.854 2.12.427.854 1.708.854 2.135.427Zm8.95 28.865c-.853 0-1.692.854-1.692 1.693 0 .839.839 1.28 1.693 1.28 5.55 0 9.82 4.667 9.82 9.76 0 .854-.427 1.266-1.28 1.266H5.181c-.427 0-1.281-.412-1.281-1.266 0-5.093 4.681-9.76 9.805-9.76.854 0 1.708-.426 1.708-1.28 0-.854-.854-1.693-1.708-1.693C6.89 33.525.912 39.472.912 46.258c0 2.547 2.135 4.666 4.27 4.666h37.1c2.547 0 4.254-2.12 4.254-4.666 0-6.786-5.535-12.733-12.793-12.733ZM23.939 9.753c4.696 0 8.524 4.666 8.524 11.04 0 6.374-3.828 11.04-8.524 11.04-5.108 0-8.951-4.681-8.951-11.04 0-6.359 3.842-11.04 8.95-11.04Zm0 25.465c6.404 0 11.513-6.359 11.513-14.425 0-8.067-5.109-14.426-11.513-14.426-3.416 0-6.39 1.693-8.524 4.24-2.135 2.973-3.416 6.358-3.416 10.186 0 8.066 5.124 14.425 11.94 14.425Z" clip-rule="evenodd"/></svg>