<svg xmlns="http://www.w3.org/2000/svg" fill="none" viewBox="0 0 56 47"><path fill="#fff" fill-rule="evenodd" d="M41.753 20.24s.128 14.585-5.783 19.79c-5.471 4.835-11.301 2.464-14.806-.254-1.631 1.55-2.741 2.614-2.741 2.614l-5.934.29s2.88-1.574 7.056-4.35c-3.077-3.1-5.645-8.212-.22-13.001 5.91-5.229 22.428-5.09 22.428-5.09ZM28.474.806c-.694 0-1.422.196-1.99.636L1.917 20.563c-1.029.81-1.307 2.117-.647 3.193.705 1.133 2.348 2.463 4.696 2.463.52 0 1.018-.034 1.527-.162v16.98c0 .44.104 1.609 1.122 2.557.728.671 1.746 1.018 2.857 1.018h12.192l8.258-.035h11.903c1.191 0 2.29-.404 3.077-1.122a3.632 3.632 0 0 0 1.156-2.706V25.838c.671.185 1.307.289 1.955.289 2.476 0 4.164-1.354 4.847-2.499.613-1.052.335-2.325-.648-3.134L30.43 1.477c-.555-.44-1.249-.659-1.955-.67Z" clip-rule="evenodd"/></svg>